{
  "schema": "midip.pattern",
  "version": 2,
  "factory_id": "drums.jungle-breaks.amen-two-bar",
  "role": "drums",
  "kind": "drums",
  "genre": "jungle-breaks",
  "name": "Amen Two-Bar",
  "desc": "Chopped two-bar amen break with a ratcheted snare fill into the loop.",
  "length": 32,
  "steps": [
    [
      {
        "note": 36,
        "vel": 118
      },
      {
        "note": 42,
        "vel": 102
      }
    ],
    [
      {
        "note": 42,
        "vel": 102
      }
    ],
    [
      {
        "note": 42,
        "vel": 102,
        "micro": -60
      }
    ],
    [
      {
        "note": 42,
        "vel": 102
      }
    ],
    [
      {
        "note": 38,
        "vel": 118
      },
      {
        "note": 42,
        "vel": 102
      }
    ],
    [
      {
        "note": 42,
        "vel": 102
      }
    ],
    [
      {
        "note": 42,
        "vel": 102,
        "micro": -60
      }
    ],
    [
      {
        "note": 38,
        "vel": 48
      },
      {
        "note": 42,
        "vel": 102
      }
    ],
    [
      {
        "note": 42,
        "vel": 102
      }
    ],
    [
      {
        "note": 42,
        "vel": 102
      }
    ],
    [
      {
        "note": 36,
        "vel": 102,
        "micro": -60
      },
      {
        "note": 42,
        "vel": 102,
        "micro": -60
      }
    ],
    [
      {
        "note": 42,
        "vel": 102
      }
    ],
    [
      {
        "note": 38,
        "vel": 118
      },
      {
        "note": 42,
        "vel": 102
      }
    ],
    [
      {
        "note": 42,
        "vel": 102
      }
    ],
    [
      {
        "note": 42,
        "vel": 102,
        "micro": -60
      }
    ],
    [
      {
        "note": 42,
        "vel": 102
      }
    ],
    [
      {
        "note": 36,
        "vel": 118
      },
      {
        "note": 42,
        "vel": 102
      }
    ],
    [
      {
        "note": 42,
        "vel": 102
      }
    ],
    [
      {
        "note": 42,
        "vel": 102
      }
    ],
    [
      {
        "note": 42,
        "vel": 102
      }
    ],
    [
      {
        "note": 38,
        "vel": 118
      },
      {
        "note": 42,
        "vel": 102
      }
    ],
    [
      {
        "note": 42,
        "vel": 102
      }
    ],
    [
      {
        "note": 42,
        "vel": 102
      }
    ],
    [
      {
        "note": 38,
        "vel": 48
      },
      {
        "note": 42,
        "vel": 102
      }
    ],
    [
      {
        "note": 42,
        "vel": 102
      }
    ],
    [
      {
        "note": 42,
        "vel": 102
      }
    ],
    [
      {
        "note": 36,
        "vel": 102
      },
      {
        "note": 42,
        "vel": 102
      },
      {
        "note": 47,
        "vel": 102
      }
    ],
    [
      {
        "note": 42,
        "vel": 102
      }
    ],
    [
      {
        "note": 38,
        "vel": 102
      },
      {
        "note": 42,
        "vel": 102
      }
    ],
    [
      {
        "note": 38,
        "vel": 102,
        "ratchet": 2
      },
      {
        "note": 42,
        "vel": 102
      }
    ],
    [
      {
        "note": 38,
        "vel": 102,
        "ratchet": 3
      },
      {
        "note": 42,
        "vel": 102
      }
    ],
    [
      {
        "note": 38,
        "vel": 102,
        "ratchet": 4
      },
      {
        "note": 42,
        "vel": 102
      }
    ]
  ],
  "metadata": {
    "bpm_min": 160,
    "bpm_max": 174,
    "feel": "pushed (early offbeats)",
    "timing": "pushed",
    "energy": "high",
    "density": "dense",
    "tags": [
      "jungle-breaks",
      "two-bar",
      "4/4"
    ],
    "harmonic": null,
    "chord_poly": "none",
    "subgenre": "jungle-breaks",
    "compatible_devices": [
      "t8-drums",
      "rd-8",
      "drumbrute-impact",
      "circuit-drums",
      "generic-gm-drums"
    ],
    "meter": "4/4",
    "steps_per_bar": 16,
    "bars": 2,
    "function": "variation_b"
  },
  "provenance": {
    "source": "factory",
    "author": "midip factory",
    "pack": "multi-bar",
    "license": "original generic groove (no copyrighted material)",
    "references": [
      "Magenta Groove MIDI Dataset",
      "documented genre groove references",
      "standard meter/subdivision theory (3/4, 6/8, 5/4)"
    ]
  }
}