{
  "schema": "midip.pattern",
  "version": 2,
  "factory_id": "drums.tech-house.percussion-tool",
  "role": "drums",
  "kind": "drums",
  "genre": "tech-house",
  "name": "Percussion Tool",
  "desc": "Busy percussion tool layering cowbell syncopation and a ride shimmer over the roll.",
  "length": 16,
  "steps": [
    [
      {
        "note": 36,
        "vel": 118
      },
      {
        "note": 42,
        "vel": 102
      }
    ],
    [
      {
        "note": 42,
        "vel": 102
      },
      {
        "note": 56,
        "vel": 102
      }
    ],
    [
      {
        "note": 46,
        "vel": 102
      },
      {
        "note": 42,
        "vel": 102
      },
      {
        "note": 51,
        "vel": 102
      }
    ],
    [
      {
        "note": 42,
        "vel": 102
      },
      {
        "note": 56,
        "vel": 102
      }
    ],
    [
      {
        "note": 36,
        "vel": 118
      },
      {
        "note": 42,
        "vel": 102
      },
      {
        "note": 37,
        "vel": 102
      }
    ],
    [
      {
        "note": 42,
        "vel": 102
      }
    ],
    [
      {
        "note": 46,
        "vel": 102
      },
      {
        "note": 42,
        "vel": 102
      },
      {
        "note": 51,
        "vel": 102
      }
    ],
    [
      {
        "note": 42,
        "vel": 102
      },
      {
        "note": 56,
        "vel": 102
      }
    ],
    [
      {
        "note": 36,
        "vel": 118
      },
      {
        "note": 42,
        "vel": 102
      }
    ],
    [
      {
        "note": 42,
        "vel": 102
      }
    ],
    [
      {
        "note": 46,
        "vel": 102
      },
      {
        "note": 42,
        "vel": 102
      },
      {
        "note": 56,
        "vel": 102
      },
      {
        "note": 51,
        "vel": 102
      }
    ],
    [
      {
        "note": 42,
        "vel": 102
      }
    ],
    [
      {
        "note": 36,
        "vel": 118
      },
      {
        "note": 42,
        "vel": 102
      },
      {
        "note": 37,
        "vel": 102
      }
    ],
    [
      {
        "note": 42,
        "vel": 102
      },
      {
        "note": 56,
        "vel": 102
      }
    ],
    [
      {
        "note": 46,
        "vel": 102
      },
      {
        "note": 42,
        "vel": 102
      },
      {
        "note": 51,
        "vel": 102
      }
    ],
    [
      {
        "note": 42,
        "vel": 102
      }
    ]
  ],
  "metadata": {
    "bpm_min": 124,
    "bpm_max": 128,
    "feel": "straight",
    "timing": "straight",
    "energy": "high",
    "density": "dense",
    "tags": [
      "tech-house",
      "rolling"
    ],
    "harmonic": null,
    "chord_poly": "none",
    "subgenre": "tech-house",
    "compatible_devices": [
      "t8-drums",
      "rd-8",
      "drumbrute-impact",
      "circuit-drums",
      "generic-gm-drums"
    ],
    "function": "variation_b"
  },
  "provenance": {
    "source": "factory",
    "author": "midip factory",
    "pack": "modern-club",
    "license": "original generic groove (no copyrighted material)",
    "references": [
      "Tech-house production guides (Beatportal, Samplesound)",
      "Roland TR-909 four-on-floor heritage",
      "Magenta Groove MIDI Dataset"
    ]
  }
}