{
  "schema": "midip.pattern",
  "version": 2,
  "factory_id": "drums.disco.floor-two-bar",
  "role": "drums",
  "kind": "drums",
  "genre": "disco",
  "name": "Floor Two-Bar",
  "desc": "Two-bar disco four-on-floor with a bar-2 crescendo.",
  "length": 32,
  "steps": [
    [
      {
        "note": 36,
        "vel": 118
      },
      {
        "note": 42,
        "vel": 102
      }
    ],
    [],
    [
      {
        "note": 46,
        "vel": 102
      },
      {
        "note": 42,
        "vel": 102
      }
    ],
    [],
    [
      {
        "note": 36,
        "vel": 118
      },
      {
        "note": 38,
        "vel": 118
      },
      {
        "note": 42,
        "vel": 102
      }
    ],
    [],
    [
      {
        "note": 46,
        "vel": 102
      },
      {
        "note": 42,
        "vel": 102
      }
    ],
    [],
    [
      {
        "note": 36,
        "vel": 118
      },
      {
        "note": 42,
        "vel": 102
      }
    ],
    [],
    [
      {
        "note": 46,
        "vel": 102
      },
      {
        "note": 42,
        "vel": 102
      }
    ],
    [],
    [
      {
        "note": 36,
        "vel": 118
      },
      {
        "note": 38,
        "vel": 118
      },
      {
        "note": 42,
        "vel": 102
      }
    ],
    [],
    [
      {
        "note": 46,
        "vel": 102
      },
      {
        "note": 42,
        "vel": 102
      }
    ],
    [],
    [
      {
        "note": 36,
        "vel": 118
      },
      {
        "note": 42,
        "vel": 102
      }
    ],
    [],
    [
      {
        "note": 46,
        "vel": 102
      },
      {
        "note": 42,
        "vel": 102
      }
    ],
    [],
    [
      {
        "note": 36,
        "vel": 118
      },
      {
        "note": 38,
        "vel": 118
      },
      {
        "note": 42,
        "vel": 102
      }
    ],
    [],
    [
      {
        "note": 46,
        "vel": 102
      },
      {
        "note": 42,
        "vel": 102
      }
    ],
    [],
    [
      {
        "note": 36,
        "vel": 118
      },
      {
        "note": 42,
        "vel": 102
      }
    ],
    [],
    [
      {
        "note": 46,
        "vel": 102
      },
      {
        "note": 42,
        "vel": 102
      },
      {
        "note": 47,
        "vel": 102
      }
    ],
    [],
    [
      {
        "note": 36,
        "vel": 118
      },
      {
        "note": 38,
        "vel": 102
      },
      {
        "note": 42,
        "vel": 102
      }
    ],
    [
      {
        "note": 38,
        "vel": 102,
        "ratchet": 2
      }
    ],
    [
      {
        "note": 38,
        "vel": 102,
        "ratchet": 3
      },
      {
        "note": 46,
        "vel": 102
      },
      {
        "note": 42,
        "vel": 102
      }
    ],
    [
      {
        "note": 38,
        "vel": 102,
        "ratchet": 4
      }
    ]
  ],
  "metadata": {
    "bpm_min": 115,
    "bpm_max": 125,
    "feel": "",
    "timing": "straight",
    "energy": "high",
    "density": "dense",
    "tags": [
      "disco",
      "two-bar",
      "4/4"
    ],
    "harmonic": null,
    "chord_poly": "none",
    "subgenre": "disco",
    "compatible_devices": [
      "t8-drums",
      "rd-8",
      "drumbrute-impact",
      "circuit-drums",
      "generic-gm-drums"
    ],
    "meter": "4/4",
    "steps_per_bar": 16,
    "bars": 2
  },
  "provenance": {
    "source": "factory",
    "author": "midip factory",
    "pack": "multi-bar",
    "license": "original generic groove (no copyrighted material)",
    "references": [
      "Magenta Groove MIDI Dataset",
      "documented genre groove references",
      "standard meter/subdivision theory (3/4, 6/8, 5/4)"
    ]
  }
}