{
  "schema": "midip.pattern",
  "version": 2,
  "factory_id": "drums.glitch-idm.scatter",
  "role": "drums",
  "kind": "drums",
  "genre": "glitch-idm",
  "name": "Scatter",
  "desc": "Scattered IDM kit with probabilistic rim hits and deterministic per-step humanized microtiming (seeded jitter).",
  "length": 16,
  "steps": [
    [
      {
        "note": 36,
        "vel": 118,
        "micro": 5
      },
      {
        "note": 42,
        "vel": 102,
        "micro": 5
      }
    ],
    [
      {
        "note": 42,
        "vel": 102,
        "micro": -42
      }
    ],
    [
      {
        "note": 37,
        "vel": 102,
        "prob": 0.7,
        "micro": 23
      },
      {
        "note": 42,
        "vel": 102,
        "micro": 23
      }
    ],
    [
      {
        "note": 36,
        "vel": 102,
        "micro": -36
      },
      {
        "note": 42,
        "vel": 102,
        "micro": -36
      }
    ],
    [
      {
        "note": 38,
        "vel": 118,
        "micro": 36
      },
      {
        "note": 42,
        "vel": 102,
        "micro": 36
      }
    ],
    [
      {
        "note": 42,
        "vel": 102,
        "micro": -5
      }
    ],
    [
      {
        "note": 42,
        "vel": 102,
        "micro": 29
      }
    ],
    [
      {
        "note": 37,
        "vel": 102,
        "prob": 0.6,
        "micro": -23
      },
      {
        "note": 42,
        "vel": 102,
        "micro": -23
      }
    ],
    [
      {
        "note": 42,
        "vel": 102,
        "micro": -26
      }
    ],
    [
      {
        "note": 36,
        "vel": 102,
        "micro": 20
      },
      {
        "note": 42,
        "vel": 102,
        "micro": 20
      }
    ],
    [
      {
        "note": 42,
        "vel": 102,
        "micro": -14
      }
    ],
    [
      {
        "note": 38,
        "vel": 102,
        "micro": 39
      },
      {
        "note": 42,
        "vel": 102,
        "micro": 39
      }
    ],
    [
      {
        "note": 42,
        "vel": 102,
        "micro": -7
      }
    ],
    [
      {
        "note": 38,
        "vel": 48,
        "prob": 0.5,
        "micro": 10
      },
      {
        "note": 42,
        "vel": 102,
        "micro": 10
      }
    ],
    [
      {
        "note": 37,
        "vel": 102,
        "prob": 0.7,
        "micro": -45
      },
      {
        "note": 42,
        "vel": 102,
        "micro": -45
      }
    ],
    [
      {
        "note": 42,
        "vel": 102,
        "micro": 2
      }
    ]
  ],
  "metadata": {
    "bpm_min": 90,
    "bpm_max": 160,
    "feel": "humanized microtiming",
    "timing": "humanized",
    "energy": "mid",
    "density": "dense",
    "tags": [
      "glitch",
      "idm",
      "humanized",
      "scatter"
    ],
    "harmonic": null,
    "chord_poly": "none",
    "subgenre": "glitch-idm",
    "compatible_devices": [
      "t8-drums",
      "rd-8",
      "drumbrute-impact",
      "circuit-drums",
      "generic-gm-drums"
    ],
    "function": "core"
  },
  "provenance": {
    "source": "factory",
    "author": "midip factory",
    "pack": "timing",
    "license": "original generic groove (no copyrighted material)",
    "references": [
      "Magenta Groove MIDI Dataset (microtiming/groove methodology)",
      "MPC/Akai swing workflow references",
      "documented genre groove references"
    ]
  }
}