{
  "schema": "midip.pattern",
  "version": 2,
  "factory_id": "drums.funk.pocket-two-bar",
  "role": "drums",
  "kind": "drums",
  "genre": "funk",
  "name": "Pocket Two-Bar",
  "desc": "Two-bar funk pocket with ghost snares and a bar-2 fill.",
  "length": 32,
  "steps": [
    [
      {
        "note": 36,
        "vel": 118
      },
      {
        "note": 42,
        "vel": 118
      }
    ],
    [
      {
        "note": 42,
        "vel": 102,
        "micro": 80
      }
    ],
    [
      {
        "note": 42,
        "vel": 102
      }
    ],
    [
      {
        "note": 42,
        "vel": 102,
        "micro": 80
      }
    ],
    [
      {
        "note": 38,
        "vel": 118
      },
      {
        "note": 42,
        "vel": 118
      }
    ],
    [
      {
        "note": 42,
        "vel": 102,
        "micro": 80
      }
    ],
    [
      {
        "note": 36,
        "vel": 102
      },
      {
        "note": 42,
        "vel": 102
      }
    ],
    [
      {
        "note": 38,
        "vel": 48,
        "micro": 80
      },
      {
        "note": 42,
        "vel": 102,
        "micro": 80
      }
    ],
    [
      {
        "note": 42,
        "vel": 118
      }
    ],
    [
      {
        "note": 42,
        "vel": 102,
        "micro": 80
      }
    ],
    [
      {
        "note": 36,
        "vel": 102
      },
      {
        "note": 42,
        "vel": 102
      }
    ],
    [
      {
        "note": 38,
        "vel": 48,
        "micro": 80
      },
      {
        "note": 42,
        "vel": 102,
        "micro": 80
      }
    ],
    [
      {
        "note": 38,
        "vel": 118
      },
      {
        "note": 42,
        "vel": 118
      }
    ],
    [
      {
        "note": 42,
        "vel": 102,
        "micro": 80
      }
    ],
    [
      {
        "note": 42,
        "vel": 102
      }
    ],
    [
      {
        "note": 42,
        "vel": 102,
        "micro": 80
      }
    ],
    [
      {
        "note": 36,
        "vel": 118
      },
      {
        "note": 42,
        "vel": 118
      }
    ],
    [
      {
        "note": 42,
        "vel": 102,
        "micro": 80
      }
    ],
    [
      {
        "note": 42,
        "vel": 102
      }
    ],
    [
      {
        "note": 42,
        "vel": 102,
        "micro": 80
      }
    ],
    [
      {
        "note": 38,
        "vel": 118
      },
      {
        "note": 42,
        "vel": 118
      }
    ],
    [
      {
        "note": 42,
        "vel": 102,
        "micro": 80
      }
    ],
    [
      {
        "note": 36,
        "vel": 102
      },
      {
        "note": 42,
        "vel": 102
      }
    ],
    [
      {
        "note": 38,
        "vel": 48,
        "micro": 80
      },
      {
        "note": 42,
        "vel": 102,
        "micro": 80
      }
    ],
    [
      {
        "note": 42,
        "vel": 118
      }
    ],
    [
      {
        "note": 42,
        "vel": 102,
        "micro": 80
      }
    ],
    [
      {
        "note": 36,
        "vel": 102
      },
      {
        "note": 42,
        "vel": 102
      },
      {
        "note": 47,
        "vel": 102
      }
    ],
    [
      {
        "note": 38,
        "vel": 48,
        "micro": 80
      },
      {
        "note": 42,
        "vel": 102,
        "micro": 80
      }
    ],
    [
      {
        "note": 38,
        "vel": 102
      },
      {
        "note": 42,
        "vel": 118
      }
    ],
    [
      {
        "note": 38,
        "vel": 102,
        "ratchet": 2,
        "micro": 80
      },
      {
        "note": 42,
        "vel": 102,
        "micro": 80
      }
    ],
    [
      {
        "note": 38,
        "vel": 102,
        "ratchet": 3
      },
      {
        "note": 42,
        "vel": 102
      }
    ],
    [
      {
        "note": 38,
        "vel": 102,
        "ratchet": 4,
        "micro": 80
      },
      {
        "note": 42,
        "vel": 102,
        "micro": 80
      }
    ]
  ],
  "metadata": {
    "bpm_min": 96,
    "bpm_max": 112,
    "feel": "swung-16 (light 54%)",
    "timing": "light-swing",
    "energy": "high",
    "density": "dense",
    "tags": [
      "funk",
      "two-bar",
      "4/4"
    ],
    "harmonic": null,
    "chord_poly": "none",
    "subgenre": "funk",
    "compatible_devices": [
      "t8-drums",
      "rd-8",
      "drumbrute-impact",
      "circuit-drums",
      "generic-gm-drums"
    ],
    "meter": "4/4",
    "steps_per_bar": 16,
    "bars": 2,
    "function": "variation_b"
  },
  "provenance": {
    "source": "factory",
    "author": "midip factory",
    "pack": "multi-bar",
    "license": "original generic groove (no copyrighted material)",
    "references": [
      "Magenta Groove MIDI Dataset",
      "documented genre groove references",
      "standard meter/subdivision theory (3/4, 6/8, 5/4)"
    ]
  }
}