{
  "schema": "midip.pattern",
  "version": 2,
  "factory_id": "drums.amapiano.piano-core",
  "role": "drums",
  "kind": "drums",
  "genre": "amapiano",
  "name": "Piano Core",
  "desc": "Four-on-floor with rolling sixteenth hats, offbeat open hats and a late snare backbeat with ghost tail on beat 4.",
  "length": 16,
  "steps": [
    [
      {
        "note": 36,
        "vel": 118
      },
      {
        "note": 42,
        "vel": 102
      }
    ],
    [
      {
        "note": 42,
        "vel": 102,
        "prob": 0.75,
        "micro": 160
      }
    ],
    [
      {
        "note": 42,
        "vel": 102
      },
      {
        "note": 46,
        "vel": 102
      }
    ],
    [
      {
        "note": 42,
        "vel": 102,
        "prob": 0.75,
        "micro": 160
      }
    ],
    [
      {
        "note": 36,
        "vel": 118
      },
      {
        "note": 42,
        "vel": 102
      }
    ],
    [
      {
        "note": 42,
        "vel": 102,
        "prob": 0.75,
        "micro": 160
      }
    ],
    [
      {
        "note": 42,
        "vel": 102
      },
      {
        "note": 46,
        "vel": 102
      }
    ],
    [
      {
        "note": 42,
        "vel": 102,
        "prob": 0.75,
        "micro": 160
      }
    ],
    [
      {
        "note": 36,
        "vel": 118
      },
      {
        "note": 42,
        "vel": 102
      }
    ],
    [
      {
        "note": 42,
        "vel": 102,
        "prob": 0.75,
        "micro": 160
      }
    ],
    [
      {
        "note": 42,
        "vel": 102
      },
      {
        "note": 46,
        "vel": 102
      }
    ],
    [
      {
        "note": 42,
        "vel": 102,
        "prob": 0.75,
        "micro": 160
      }
    ],
    [
      {
        "note": 36,
        "vel": 118
      },
      {
        "note": 42,
        "vel": 102
      },
      {
        "note": 38,
        "vel": 118
      }
    ],
    [
      {
        "note": 42,
        "vel": 102,
        "prob": 0.75,
        "micro": 160
      },
      {
        "note": 38,
        "vel": 48,
        "prob": 0.6,
        "micro": 160
      }
    ],
    [
      {
        "note": 42,
        "vel": 102
      },
      {
        "note": 46,
        "vel": 102
      },
      {
        "note": 38,
        "vel": 48,
        "prob": 0.5
      }
    ],
    [
      {
        "note": 42,
        "vel": 102,
        "prob": 0.75,
        "micro": 160
      }
    ]
  ],
  "metadata": {
    "bpm_min": 108,
    "bpm_max": 118,
    "feel": "swung-16 (mpc 58%)",
    "timing": "mpc-swing",
    "energy": "mid",
    "density": "core",
    "tags": [
      "amapiano",
      "log-drum"
    ],
    "harmonic": null,
    "chord_poly": "none",
    "subgenre": "amapiano",
    "compatible_devices": [
      "t8-drums",
      "rd-8",
      "drumbrute-impact",
      "circuit-drums",
      "generic-gm-drums"
    ],
    "function": "core"
  },
  "provenance": {
    "source": "factory",
    "author": "midip factory",
    "pack": "afro-house-amapiano",
    "license": "original generic groove (no copyrighted material)",
    "references": [
      "'Amapiano' (Wikipedia): Gauteng township origins, kwaito/deep-house/jazz lineage, log drum",
      "Amapiano's Second Wave \u2014 South African history (Mixmag)",
      "Amapiano log-drum production (InspiredByBeatz)",
      "Amapiano BPM ~108-118 (vibesdj)"
    ]
  }
}