{
  "schema": "midip.pattern",
  "version": 2,
  "factory_id": "drums.hard-techno.peak-pounder",
  "role": "drums",
  "kind": "drums",
  "genre": "hard-techno",
  "name": "Peak Pounder",
  "desc": "Relentless sixteenth kick rumble under offbeat hats \u2014 peak-time weapon.",
  "length": 16,
  "steps": [
    [
      {
        "note": 36,
        "vel": 127
      },
      {
        "note": 42,
        "vel": 102
      }
    ],
    [
      {
        "note": 36,
        "vel": 48
      },
      {
        "note": 42,
        "vel": 102
      }
    ],
    [
      {
        "note": 36,
        "vel": 48
      },
      {
        "note": 46,
        "vel": 102
      },
      {
        "note": 42,
        "vel": 102
      }
    ],
    [
      {
        "note": 36,
        "vel": 48
      },
      {
        "note": 42,
        "vel": 102
      }
    ],
    [
      {
        "note": 36,
        "vel": 127
      },
      {
        "note": 42,
        "vel": 102
      }
    ],
    [
      {
        "note": 36,
        "vel": 48
      },
      {
        "note": 42,
        "vel": 102
      }
    ],
    [
      {
        "note": 36,
        "vel": 48
      },
      {
        "note": 46,
        "vel": 102
      },
      {
        "note": 42,
        "vel": 102
      }
    ],
    [
      {
        "note": 36,
        "vel": 48
      },
      {
        "note": 42,
        "vel": 102
      }
    ],
    [
      {
        "note": 36,
        "vel": 127
      },
      {
        "note": 42,
        "vel": 102
      }
    ],
    [
      {
        "note": 36,
        "vel": 48
      },
      {
        "note": 42,
        "vel": 102
      }
    ],
    [
      {
        "note": 36,
        "vel": 48
      },
      {
        "note": 46,
        "vel": 102
      },
      {
        "note": 42,
        "vel": 102
      }
    ],
    [
      {
        "note": 36,
        "vel": 48
      },
      {
        "note": 42,
        "vel": 102
      }
    ],
    [
      {
        "note": 36,
        "vel": 127
      },
      {
        "note": 42,
        "vel": 102
      }
    ],
    [
      {
        "note": 36,
        "vel": 48
      },
      {
        "note": 42,
        "vel": 102
      }
    ],
    [
      {
        "note": 36,
        "vel": 48
      },
      {
        "note": 46,
        "vel": 102
      },
      {
        "note": 42,
        "vel": 102
      }
    ],
    [
      {
        "note": 36,
        "vel": 48
      },
      {
        "note": 42,
        "vel": 102,
        "ratchet": 4
      }
    ]
  ],
  "metadata": {
    "bpm_min": 140,
    "bpm_max": 155,
    "feel": "straight",
    "timing": "straight",
    "energy": "high",
    "density": "dense",
    "tags": [
      "hard-techno",
      "driving"
    ],
    "harmonic": null,
    "chord_poly": "none",
    "subgenre": "hard-techno",
    "compatible_devices": [
      "t8-drums",
      "rd-8",
      "drumbrute-impact",
      "circuit-drums",
      "generic-gm-drums"
    ]
  },
  "provenance": {
    "source": "factory",
    "author": "midip factory",
    "pack": "modern-club",
    "license": "original generic groove (no copyrighted material)",
    "references": [
      "Techno BPM guide (ZIPDJ)",
      "Hard-techno production references",
      "Roland TR-909 heritage"
    ]
  }
}