{
  "schema": "midip.pattern",
  "version": 2,
  "factory_id": "drums.footwork.triplet-juke",
  "role": "drums",
  "kind": "drums",
  "genre": "footwork",
  "name": "Triplet Juke",
  "desc": "Dense triplet-ratchet snare and hat rolls throughout \u2014 full juke intensity.",
  "length": 16,
  "steps": [
    [
      {
        "note": 36,
        "vel": 118,
        "micro": 5
      },
      {
        "note": 42,
        "vel": 102,
        "micro": 5
      }
    ],
    [
      {
        "note": 42,
        "vel": 102,
        "micro": -42
      }
    ],
    [
      {
        "note": 42,
        "vel": 102,
        "ratchet": 3,
        "micro": 23
      }
    ],
    [
      {
        "note": 36,
        "vel": 102,
        "micro": -36
      },
      {
        "note": 42,
        "vel": 102,
        "micro": -36
      }
    ],
    [
      {
        "note": 38,
        "vel": 102,
        "ratchet": 3,
        "micro": 36
      },
      {
        "note": 42,
        "vel": 102,
        "micro": 36
      }
    ],
    [
      {
        "note": 42,
        "vel": 102,
        "micro": -5
      }
    ],
    [
      {
        "note": 36,
        "vel": 102,
        "micro": 29
      },
      {
        "note": 42,
        "vel": 102,
        "ratchet": 3,
        "micro": 29
      }
    ],
    [
      {
        "note": 42,
        "vel": 102,
        "micro": -23
      }
    ],
    [
      {
        "note": 36,
        "vel": 102,
        "micro": -26
      },
      {
        "note": 38,
        "vel": 118,
        "ratchet": 3,
        "micro": -26
      },
      {
        "note": 42,
        "vel": 102,
        "micro": -26
      }
    ],
    [
      {
        "note": 42,
        "vel": 102,
        "micro": 20
      }
    ],
    [
      {
        "note": 36,
        "vel": 102,
        "micro": -14
      },
      {
        "note": 42,
        "vel": 102,
        "ratchet": 3,
        "micro": -14
      }
    ],
    [
      {
        "note": 42,
        "vel": 102,
        "micro": 39
      }
    ],
    [
      {
        "note": 38,
        "vel": 102,
        "ratchet": 3,
        "micro": -7
      },
      {
        "note": 42,
        "vel": 102,
        "micro": -7
      }
    ],
    [
      {
        "note": 36,
        "vel": 102,
        "micro": 10
      },
      {
        "note": 42,
        "vel": 102,
        "micro": 10
      }
    ],
    [
      {
        "note": 42,
        "vel": 102,
        "ratchet": 3,
        "micro": -45
      }
    ],
    [
      {
        "note": 42,
        "vel": 102,
        "micro": 2
      }
    ]
  ],
  "metadata": {
    "bpm_min": 158,
    "bpm_max": 162,
    "feel": "humanized microtiming",
    "timing": "humanized",
    "energy": "high",
    "density": "dense",
    "tags": [
      "footwork",
      "juke",
      "triplet"
    ],
    "harmonic": null,
    "chord_poly": "none",
    "subgenre": "footwork",
    "compatible_devices": [
      "t8-drums",
      "rd-8",
      "drumbrute-impact",
      "circuit-drums",
      "generic-gm-drums"
    ],
    "function": "variation_b"
  },
  "provenance": {
    "source": "factory",
    "author": "midip factory",
    "pack": "modern-club",
    "license": "original generic groove (no copyrighted material)",
    "references": [
      "Footwork/Teklife references (Wikipedia, soundwitches)",
      "Magenta Groove MIDI Dataset",
      "Roland TR-808/909 heritage"
    ]
  }
}